Coordinates
version=1
nRows=7
nColumns=40
inDegrees=yes

Units are S.I. units (second, meters, Newtons, ...)
Angles are in degrees.

endheader
time	pelvis_tilt	pelvis_list	pelvis_rotation	pelvis_tx	pelvis_ty	pelvis_tz	hip_flexion_r	hip_adduction_r	hip_rotation_r	knee_angle_r	knee_angle_r_beta	ankle_angle_r	subtalar_angle_r	mtp_angle_r	hip_flexion_l	hip_adduction_l	hip_rotation_l	knee_angle_l	knee_angle_l_beta	ankle_angle_l	subtalar_angle_l	mtp_angle_l	lumbar_extension	lumbar_bending	lumbar_rotation	arm_flex_r	arm_add_r	arm_rot_r	elbow_flex_r	pro_sup_r	wrist_flex_r	wrist_dev_r	arm_flex_l	arm_add_l	arm_rot_l	elbow_flex_l	pro_sup_l	wrist_flex_l	wrist_dev_l
     36.24142857	     -6.47115455	     -3.82421755	     -2.91487344	      1.04476521	      0.92076462	      0.43728339	     32.86599812	     -1.74398900	    -12.85684910	     16.00087584	     16.00087584	      2.10148284	      6.02824681	      8.59309304	      1.63111585	     -3.73365489	     -8.44331551	     13.93194388	     13.93194388	     19.90064126	     -2.17430430	     -2.73525804	    -12.16429819	      4.40306649	      3.07564892	     -7.93684071	    -14.58606687	     -5.28511919	     23.69724145	     47.14828617	      0.00000000	      0.00000000	     35.05878015	    -22.34397012	      6.99919406	     96.47856870	     47.45300109	      0.00000000	      0.00000000
     36.25285714	     -6.55609169	     -3.53810785	     -2.62959230	      1.04688547	      0.91888364	      0.43837409	     32.22416710	     -1.84133693	    -13.60631557	     14.74522786	     14.74522786	      1.85471665	      6.32797075	      9.16135768	      0.85043599	     -3.50103810	     -8.51418956	     13.57207603	     13.57207603	     20.25093309	     -1.55617459	     -2.95758442	    -11.73554179	      4.13989463	      3.03691744	     -8.90185764	    -14.30198430	     -5.27314818	     23.83862168	     47.12262795	      0.00000000	      0.00000000	     35.33610981	    -22.21927325	      7.11400327	     97.66124975	     47.48016283	      0.00000000	      0.00000000
     36.26428571	     -6.58661439	     -3.29900166	     -2.24039168	      1.04912234	      0.91701095	      0.43944698	     31.75517523	     -2.01552102	    -14.26091752	     14.38485225	     14.38485225	      1.79181582	      6.03671819	      9.29588748	      0.16593116	     -3.34111372	     -8.30648416	     13.50603506	     13.50603506	     20.63975071	     -1.15560826	     -3.15966185	    -11.33742992	      3.95288758	      2.81200667	     -9.77500501	    -14.10490111	     -5.27013561	     23.76851597	     47.11298101	      0.00000000	      0.00000000	     35.39690367	    -22.15702044	      7.16294985	     98.23253390	     47.49209222	      0.00000000	      0.00000000
     36.27571429	     -6.49810562	     -3.29267547	     -1.99122042	      1.05168647	      0.91549075	      0.44106483	     30.92116603	     -1.84090975	    -14.72881542	     13.91369060	     13.91369060	      1.17162662	      5.66396491	      8.20068135	     -0.69690526	     -3.61210064	     -9.19883859	     13.49164501	     13.49164501	     21.27431086	      0.64914065	     -3.42181845	    -11.26207054	      3.94834860	      2.95193387	    -11.39846775	    -14.05287651	     -5.25661106	     26.45969243	     46.93458051	      0.00000000	      0.00000000	     34.91318321	    -22.39435828	      7.61850174	    101.06829815	     47.56802676	      0.00000000	      0.00000000
     36.28714286	     -6.55744680	     -3.21521309	     -1.60898406	      1.05405637	      0.91391487	      0.44240821	     30.46522307	     -1.90299199	    -15.15988602	     14.14257487	     14.14257487	      1.05512767	      5.14238974	      8.09875269	     -1.27170361	     -3.67327348	     -8.93765516	     13.59101353	     13.59101353	     21.59902392	      0.81066056	     -3.53499617	    -10.84207704	      3.94621080	      2.83140079	    -11.92874836	    -13.82401678	     -5.20782009	     26.37125173	     46.92706865	      0.00000000	      0.00000000	     34.77380571	    -22.23120678	      7.67774089	    101.29535469	     47.57076045	      0.00000000	      0.00000000
     36.29857143	     -6.51497277	     -3.28538450	     -1.27567709	      1.05657977	      0.91234017	      0.44419414	     29.93094973	     -1.63522875	    -14.61876855	     14.44798581	     14.44798581	     -0.56831427	      2.88104655	      3.37023750	     -1.68918414	     -4.12768263	     -9.57040883	     14.33339379	     14.33339379	     22.55694162	      2.34269216	     -3.15570170	    -10.68759224	      4.05416956	      2.96833078	    -13.28380123	    -13.80797922	     -4.51676354	     28.53952980	     46.71519057	      0.00000000	      0.00000000	     34.19997846	    -22.07166300	      7.88491799	    103.07750018	     47.66707639	      0.00000000	      0.00000000
     36.31000000	     -6.51387679	     -3.35428766	     -0.94554354	      1.05890777	      0.91112797	      0.44589923	     29.71484902	     -1.56153998	    -14.49341717	     15.49275249	     15.49275249	     -0.60558947	      1.59567435	      2.58667083	     -2.06831600	     -4.44585924	     -9.38663978	     14.92894859	     14.92894859	     22.87353072	      2.38188294	     -3.27092715	    -10.45254611	      4.19907250	      3.21100972	    -13.59598297	    -13.61934574	     -4.33526837	     28.55377738	     46.69085421	      0.00000000	      0.00000000	     33.74835886	    -21.73615683	      8.07599106	    103.60647207	     47.67560122	      0.00000000	      0.00000000
